ply
format ascii 1.0
comment Created by the Java program Triangulation on 2021-09-09
comment by RepRap Ltd. https://reprapltd.com
comment Software licence: GPL
comment Derived from file: file:///home/ensab/Desktop/rrlOwncloud/RepRapLtd/Engineering/Software/Eclipse/workspace/polyhedra/cube-cube.stl
element vertex 14
property float x
property float y
property float z
element face 24
property list uchar int vertex_index
end_header
0.0 0.0 0.0 
0.0 0.0 10.0 
0.0 10.0 0.0 
0.0 10.0 10.0 
10.0 0.0 0.0 
10.0 0.0 10.0 
3.0 3.0 10.0 
3.0 10.0 10.0 
10.0 3.0 10.0 
3.0 10.0 3.0 
10.0 10.0 0.0 
10.0 10.0 3.0 
10.0 3.0 3.0 
3.0 3.0 3.0 
3 0 1 2
3 2 1 3
3 3 1 6
3 5 6 1
3 0 5 1
3 4 5 0
3 0 10 4
3 12 4 10
3 12 10 11
3 11 10 9
3 10 2 9
3 3 9 2
3 7 9 3
3 7 3 6
3 6 9 7
3 6 13 9
3 11 9 13
3 11 13 12
3 8 12 13
3 8 13 6
3 8 6 5
3 5 12 8
3 5 4 12
3 2 10 0
