ply
format ascii 1.0
comment Created by the Java program Triangulation on 2021-09-01
comment by RepRap Ltd. https://reprapltd.com
comment Software licence: GPL
comment Derived from file: 
element vertex 60
property float x
property float y
property float z
element face 112
property list uchar int vertex_index
end_header
0.0 10.0 0.0 
0.0 0.0 10.0 
0.0 10.0 10.0 
10.0 10.0 10.0 
10.0 0.0 10.0 
0.0 0.0 0.0 
10.0 10.0 0.0 
10.0 0.0 0.0 
-8.241073608398438 -7.98541784286499 10.0 
-8.709209442138672 -7.87003231048584 0.0 
-8.241073608398438 -7.98541784286499 0.0 
-7.29079008102417 -7.87003231048584 0.0 
-7.758926868438721 -7.98541784286499 0.0 
-7.29079008102417 -7.87003231048584 10.0 
-6.863870620727539 -7.645967960357666 10.0 
-6.863870620727539 -7.645967960357666 0.0 
-6.502978324890137 -7.326245307922363 0.0 
-6.502978324890137 -7.326245307922363 10.0 
-6.229087829589844 -6.929446220397949 10.0 
-6.229087829589844 -6.929446220397949 0.0 
-6.058116436004639 -6.478631496429443 0.0 
-6.058116436004639 -6.478631496429443 10.0 
-6.0 -6.0 10.0 
-6.0 -6.0 0.0 
-6.229087829589844 -5.070553779602051 0.0 
-6.058116436004639 -5.521368503570557 0.0 
-6.229087829589844 -5.070553779602051 10.0 
-6.502978324890137 -4.673754692077637 10.0 
-6.502978324890137 -4.673754692077637 0.0 
-7.29079008102417 -4.12996768951416 0.0 
-7.758926868438721 -4.01458215713501 0.0 
-8.241073608398438 -4.01458215713501 0.0 
-9.770912170410156 -5.070553779602051 0.0 
-9.94188404083252 -5.521368503570557 0.0 
-9.770912170410156 -6.929446220397949 0.0 
-9.497021675109863 -7.326245307922363 0.0 
-9.136129379272461 -7.645967960357666 0.0 
-8.709209442138672 -7.87003231048584 10.0 
-7.758926868438721 -7.98541784286499 10.0 
-9.136129379272461 -7.645967960357666 10.0 
-9.497021675109863 -7.326245307922363 10.0 
-9.770912170410156 -6.929446220397949 10.0 
-9.94188404083252 -6.478631496429443 0.0 
-10.0 -6.0 0.0 
-9.94188404083252 -6.478631496429443 10.0 
-9.94188404083252 -5.521368503570557 10.0 
-6.058116436004639 -5.521368503570557 10.0 
-9.770912170410156 -5.070553779602051 10.0 
-9.497021675109863 -4.673754692077637 0.0 
-9.136129379272461 -4.354032039642334 0.0 
-8.709209442138672 -4.12996768951416 0.0 
-9.136129379272461 -4.354032039642334 10.0 
-9.497021675109863 -4.673754692077637 10.0 
-8.241073608398438 -4.01458215713501 10.0 
-7.758926868438721 -4.01458215713501 10.0 
-7.29079008102417 -4.12996768951416 10.0 
-6.863870620727539 -4.354032039642334 0.0 
-6.863870620727539 -4.354032039642334 10.0 
-8.709209442138672 -4.12996768951416 10.0 
-10.0 -6.0 10.0 
3 0 1 2
3 3 2 1
3 3 1 4
3 5 4 1
3 5 1 0
3 0 6 5
3 5 6 7
3 4 7 6
3 4 6 3
3 3 6 0
3 3 0 2
3 7 4 5
3 8 9 10
3 9 11 10
3 10 11 12
3 13 12 11
3 14 13 11
3 14 11 15
3 11 16 15
3 17 15 16
3 18 17 16
3 18 16 19
3 16 20 19
3 21 19 20
3 22 21 20
3 22 20 23
3 20 24 23
3 23 24 25
3 26 25 24
3 27 26 24
3 27 24 28
3 29 28 24
3 29 24 30
3 30 24 31
3 31 24 32
3 32 24 33
3 33 24 34
3 34 24 35
3 35 24 16
3 16 24 20
3 35 16 36
3 36 16 9
3 9 16 11
3 37 36 9
3 8 37 9
3 13 37 8
3 13 8 38
3 38 8 10
3 38 10 12
3 13 38 12
3 17 37 13
3 17 13 14
3 17 14 15
3 17 39 37
3 37 39 36
3 39 35 36
3 39 40 35
3 40 34 35
3 40 41 34
3 41 42 34
3 42 33 34
3 43 33 42
3 44 43 42
3 41 44 42
3 45 44 41
3 26 45 41
3 26 41 40
3 26 40 17
3 17 40 39
3 26 17 21
3 21 17 18
3 21 18 19
3 26 21 22
3 26 22 46
3 46 22 23
3 46 23 25
3 26 46 25
3 26 47 45
3 45 47 32
3 47 48 32
3 48 49 32
3 49 31 32
3 50 31 49
3 51 50 49
3 52 51 49
3 52 49 48
3 47 52 48
3 51 52 47
3 53 51 47
3 26 53 47
3 26 54 53
3 53 54 30
3 54 29 30
3 54 55 29
3 55 56 29
3 56 28 29
3 57 28 56
3 55 57 56
3 27 57 55
3 27 55 26
3 26 55 54
3 57 27 28
3 53 30 31
3 58 53 31
3 58 31 50
3 51 58 50
3 53 58 51
3 45 32 33
3 59 45 33
3 59 33 43
3 44 59 43
3 45 59 44
