ply
format ascii 1.0
comment Created by the Java program Triangulation on 2021-09-21
comment by RepRap Ltd. https://reprapltd.com
comment Software licence: GPL
comment Derived from file: file:///home/ensab/rrlOwncloud/RepRapLtd/Engineering/Software/Eclipse/workspace/polyhedra/projections-both-ends.stl
element vertex 24
property float x
property float y
property float z
element face 44
property list uchar int vertex_index
end_header
0.0 0.0 0.0 
0.0 0.0 10.0 
0.0 10.0 0.0 
0.0 10.0 10.0 
10.0 0.0 0.0 
10.0 0.0 10.0 
8.0 2.0 10.0 
2.0 2.0 10.0 
2.0 8.0 10.0 
10.0 10.0 10.0 
8.0 8.0 10.0 
10.0 10.0 0.0 
8.0 2.0 0.0 
2.0 2.0 0.0 
2.0 8.0 0.0 
8.0 8.0 0.0 
8.0 2.0 12.0 
2.0 2.0 12.0 
8.0 8.0 12.0 
2.0 8.0 12.0 
8.0 2.0 -2.0 
2.0 2.0 -2.0 
8.0 8.0 -2.0 
2.0 8.0 -2.0 
3 0 1 2
3 2 1 3
3 8 3 1
3 8 1 7
3 5 7 1
3 0 5 1
3 4 5 0
3 13 4 0
3 0 14 13
3 23 13 14
3 15 23 14
3 14 11 15
3 15 11 12
3 12 11 4
3 5 4 11
3 5 11 9
3 9 11 2
3 2 11 14
3 2 14 0
3 9 2 3
3 9 3 8
3 9 8 10
3 18 10 8
3 18 8 19
3 8 17 19
3 18 19 17
3 18 17 16
3 7 16 17
3 7 17 8
3 6 16 7
3 5 6 7
3 9 6 5
3 9 10 6
3 16 6 10
3 16 10 18
3 12 4 13
3 21 12 13
3 21 13 23
3 23 22 21
3 21 22 20
3 12 20 22
3 12 22 15
3 15 22 23
3 20 12 21
