ply
format ascii 1.0
comment Created by the Java program Triangulation on 2021-09-02
comment by RepRap Ltd. https://reprapltd.com
comment Software licence: GPL
comment Derived from file: file:///home/ensab/Desktop/rrlOwncloud/RepRapLtd/Engineering/Software/Eclipse/workspace/polyhedra/STL2CSG-test-objects-cubePlusCylinder.stl
element vertex 60
property float x
property float y
property float z
element face 116
property list uchar int vertex_index
end_header
0.0 0.0 0.0 
0.0 0.0 10.0 
0.0 10.0 0.0 
0.0 10.0 10.0 
10.0 0.0 0.0 
10.0 0.0 10.0 
3.863870620727539 3.354032278060913 10.0 
3.502978563308716 3.6737546920776367 10.0 
3.2290878295898438 4.070553779602051 10.0 
4.29079008102417 3.129967451095581 10.0 
3.0581164360046387 4.521368503570557 10.0 
4.758926868438721 3.0145821571350098 10.0 
3.0 5.0 10.0 
5.241073131561279 3.0145821571350098 10.0 
3.2290878295898438 5.929446220397949 10.0 
3.502978563308716 6.326245307922363 10.0 
3.0581164360046387 5.478631496429443 10.0 
5.70920991897583 3.129967451095581 10.0 
6.136129379272461 3.354032278060913 10.0 
6.497021675109863 3.6737546920776367 10.0 
3.863870620727539 6.645967960357666 10.0 
6.770912170410156 4.070553779602051 10.0 
4.29079008102417 6.87003231048584 10.0 
6.941883563995361 4.521368503570557 10.0 
4.758926868438721 6.98541784286499 10.0 
7.0 5.0 10.0 
10.0 10.0 10.0 
6.941883563995361 5.478631496429443 10.0 
6.770912170410156 5.929446220397949 10.0 
6.497021675109863 6.326245307922363 10.0 
6.136129379272461 6.645967960357666 10.0 
5.70920991897583 6.87003231048584 10.0 
5.241073131561279 6.98541784286499 10.0 
10.0 10.0 0.0 
6.941883563995361 5.478631496429443 15.0 
7.0 5.0 15.0 
6.770912170410156 5.929446220397949 15.0 
6.497021675109863 6.326245307922363 15.0 
6.136129379272461 6.645967960357666 15.0 
5.70920991897583 6.87003231048584 15.0 
5.241073131561279 6.98541784286499 15.0 
4.758926868438721 6.98541784286499 15.0 
4.29079008102417 6.87003231048584 15.0 
3.863870620727539 6.645967960357666 15.0 
3.502978563308716 6.326245307922363 15.0 
3.2290878295898438 5.929446220397949 15.0 
3.0581164360046387 5.478631496429443 15.0 
3.0 5.0 15.0 
3.0581164360046387 4.521368503570557 15.0 
3.2290878295898438 4.070553779602051 15.0 
3.502978563308716 3.6737546920776367 15.0 
3.863870620727539 3.354032278060913 15.0 
4.29079008102417 3.129967451095581 15.0 
4.758926868438721 3.0145821571350098 15.0 
5.241073131561279 3.0145821571350098 15.0 
5.70920991897583 3.129967451095581 15.0 
6.136129379272461 3.354032278060913 15.0 
6.497021675109863 3.6737546920776367 15.0 
6.770912170410156 4.070553779602051 15.0 
6.941883563995361 4.521368503570557 15.0 
3 0 1 2
3 2 1 3
3 3 1 12
3 12 1 10
3 10 1 8
3 8 1 7
3 6 7 1
3 9 6 1
3 11 9 1
3 13 11 1
3 5 13 1
3 0 5 1
3 4 5 0
3 0 33 4
3 5 4 33
3 5 33 26
3 26 33 2
3 2 33 0
3 26 2 3
3 26 3 24
3 24 3 22
3 22 3 20
3 20 3 15
3 3 14 15
3 45 15 14
3 46 45 14
3 46 14 16
3 3 16 14
3 3 12 16
3 47 16 12
3 48 47 12
3 48 12 10
3 48 10 8
3 49 48 8
3 50 49 8
3 50 8 7
3 51 50 7
3 51 7 6
3 52 51 6
3 52 6 9
3 53 52 9
3 53 9 11
3 54 53 11
3 54 11 13
3 55 54 13
3 55 13 17
3 5 17 13
3 5 18 17
3 55 17 18
3 56 55 18
3 57 56 18
3 57 18 19
3 19 18 5
3 21 19 5
3 23 21 5
3 25 23 5
3 26 25 5
3 26 27 25
3 34 25 27
3 36 34 27
3 36 27 28
3 26 28 27
3 26 29 28
3 37 28 29
3 38 37 29
3 38 29 30
3 26 30 29
3 26 31 30
3 38 30 31
3 39 38 31
3 40 39 31
3 40 31 32
3 26 32 31
3 26 24 32
3 40 32 24
3 41 40 24
3 42 41 24
3 42 24 22
3 43 42 22
3 43 22 20
3 43 20 15
3 44 43 15
3 45 44 15
3 40 44 45
3 40 45 46
3 40 46 48
3 46 47 48
3 47 46 16
3 40 48 49
3 40 49 50
3 40 50 51
3 40 51 52
3 39 40 52
3 39 52 53
3 39 53 54
3 39 54 57
3 57 54 55
3 57 55 56
3 37 39 57
3 37 57 35
3 35 57 58
3 58 57 19
3 58 19 21
3 59 58 21
3 59 21 23
3 35 59 23
3 35 23 25
3 34 35 25
3 37 35 34
3 37 34 36
3 37 36 28
3 35 58 59
3 37 38 39
3 40 43 44
3 40 41 43
3 41 42 43
