ply
format ascii 1.0
comment Created by the Java program Triangulation on 2021-09-02
comment by RepRap Ltd. https://reprapltd.com
comment Software licence: GPL
comment Derived from file: file:///home/ensab/Desktop/rrlOwncloud/RepRapLtd/Engineering/Software/Eclipse/workspace/polyhedra/STL2CSG-test-objects-woo-2.stl
element vertex 16
property float x
property float y
property float z
element face 28
property list uchar int vertex_index
end_header
0.0 0.0 0.0 
0.0 0.0 10.0 
0.0 10.0 0.0 
0.0 10.0 10.0 
10.0 0.0 0.0 
10.0 0.0 10.0 
8.0 2.0 10.0 
2.0 2.0 10.0 
2.0 8.0 10.0 
10.0 10.0 10.0 
8.0 8.0 10.0 
10.0 10.0 0.0 
8.0 2.0 15.0 
2.0 2.0 15.0 
8.0 8.0 15.0 
2.0 8.0 15.0 
3 0 1 2
3 2 1 3
3 8 3 1
3 8 1 7
3 5 7 1
3 0 5 1
3 4 5 0
3 0 11 4
3 5 4 11
3 5 11 9
3 9 11 2
3 2 11 0
3 9 2 3
3 9 3 8
3 9 8 10
3 14 10 8
3 14 8 15
3 8 13 15
3 14 15 13
3 14 13 12
3 7 12 13
3 7 13 8
3 6 12 7
3 5 6 7
3 9 6 5
3 9 10 6
3 12 6 10
3 12 10 14
