ply
format ascii 1.0
comment Created by the Java program Triangulation on 2021-09-02
comment by RepRap Ltd. https://reprapltd.com
comment Software licence: GPL
comment Derived from file: file:///home/ensab/Desktop/rrlOwncloud/RepRapLtd/Engineering/Software/Eclipse/workspace/polyhedra/STL2CSG-test-objects-cube-cylinder.stl
element vertex 60
property float x
property float y
property float z
element face 120
property list uchar int vertex_index
end_header
0.0 0.0 0.0 
0.0 0.0 10.0 
0.0 10.0 0.0 
0.0 10.0 10.0 
10.0 0.0 0.0 
10.0 0.0 10.0 
3.863870620727539 3.354032278060913 10.0 
3.502978563308716 3.6737546920776367 10.0 
3.2290878295898438 4.070553779602051 10.0 
4.29079008102417 3.129967451095581 10.0 
3.0581164360046387 4.521368503570557 10.0 
4.758926868438721 3.0145821571350098 10.0 
3.0 5.0 10.0 
5.241073131561279 3.0145821571350098 10.0 
3.2290878295898438 5.929446220397949 10.0 
3.502978563308716 6.326245307922363 10.0 
3.0581164360046387 5.478631496429443 10.0 
5.70920991897583 3.129967451095581 10.0 
6.136129379272461 3.354032278060913 10.0 
6.497021675109863 3.6737546920776367 10.0 
3.863870620727539 6.645967960357666 10.0 
6.770912170410156 4.070553779602051 10.0 
4.29079008102417 6.87003231048584 10.0 
6.941883563995361 4.521368503570557 10.0 
4.758926868438721 6.98541784286499 10.0 
7.0 5.0 10.0 
10.0 10.0 10.0 
6.941883563995361 5.478631496429443 10.0 
6.770912170410156 5.929446220397949 10.0 
6.497021675109863 6.326245307922363 10.0 
6.136129379272461 6.645967960357666 10.0 
5.70920991897583 6.87003231048584 10.0 
5.241073131561279 6.98541784286499 10.0 
10.0 10.0 0.0 
3.502978563308716 3.6737546920776367 0.0 
3.863870620727539 3.354032278060913 0.0 
3.2290878295898438 4.070553779602051 0.0 
4.29079008102417 3.129967451095581 0.0 
3.0581164360046387 4.521368503570557 0.0 
4.758926868438721 3.0145821571350098 0.0 
3.0 5.0 0.0 
5.241073131561279 3.0145821571350098 0.0 
3.2290878295898438 5.929446220397949 0.0 
3.502978563308716 6.326245307922363 0.0 
3.0581164360046387 5.478631496429443 0.0 
5.70920991897583 3.129967451095581 0.0 
6.136129379272461 3.354032278060913 0.0 
6.497021675109863 3.6737546920776367 0.0 
3.863870620727539 6.645967960357666 0.0 
6.770912170410156 4.070553779602051 0.0 
4.29079008102417 6.87003231048584 0.0 
6.941883563995361 4.521368503570557 0.0 
4.758926868438721 6.98541784286499 0.0 
7.0 5.0 0.0 
6.941883563995361 5.478631496429443 0.0 
6.770912170410156 5.929446220397949 0.0 
6.497021675109863 6.326245307922363 0.0 
6.136129379272461 6.645967960357666 0.0 
5.70920991897583 6.87003231048584 0.0 
5.241073131561279 6.98541784286499 0.0 
3 0 1 2
3 2 1 3
3 3 1 12
3 12 1 10
3 10 1 8
3 8 1 7
3 6 7 1
3 9 6 1
3 11 9 1
3 13 11 1
3 5 13 1
3 0 5 1
3 4 5 0
3 41 4 0
3 39 41 0
3 37 39 0
3 35 37 0
3 34 35 0
3 0 36 34
3 36 7 34
3 7 6 34
3 34 6 35
3 6 9 35
3 35 9 37
3 9 11 37
3 37 11 39
3 11 13 39
3 39 13 41
3 41 13 45
3 13 17 45
3 17 18 45
3 45 18 46
3 18 19 46
3 46 19 47
3 19 21 47
3 47 21 49
3 49 21 51
3 21 23 51
3 23 25 51
3 51 25 53
3 25 27 53
3 53 27 54
3 27 28 54
3 54 28 55
3 28 29 55
3 55 29 56
3 29 30 56
3 56 30 57
3 30 31 57
3 57 31 58
3 31 32 58
3 58 32 59
3 32 24 59
3 59 24 52
3 52 24 50
3 24 22 50
3 22 20 50
3 50 20 48
3 20 15 48
3 48 15 43
3 43 15 42
3 15 14 42
3 14 16 42
3 42 16 44
3 16 12 44
3 44 12 40
3 12 10 40
3 40 10 38
3 10 8 38
3 38 8 36
3 8 7 36
3 0 38 36
3 0 40 38
3 0 2 40
3 40 2 44
3 44 2 42
3 42 2 43
3 2 48 43
3 2 50 48
3 2 52 50
3 2 33 52
3 52 33 59
3 59 33 58
3 58 33 57
3 57 33 56
3 56 33 55
3 55 33 54
3 54 33 53
3 53 33 4
3 5 4 33
3 5 33 26
3 26 33 2
3 26 2 3
3 26 3 24
3 24 3 22
3 22 3 20
3 20 3 15
3 3 14 15
3 3 16 14
3 3 12 16
3 26 24 32
3 26 32 31
3 26 31 30
3 26 30 29
3 26 29 28
3 26 28 27
3 26 27 25
3 26 25 5
3 25 23 5
3 23 21 5
3 21 19 5
3 19 18 5
3 5 18 17
3 5 17 13
3 51 53 4
3 49 51 4
3 47 49 4
3 46 47 4
3 46 4 45
3 45 4 41
