ply
format ascii 1.0
comment Created by the Java program Triangulation on 2021-09-20
comment by RepRap Ltd. https://reprapltd.com
comment Software licence: GPL
comment Derived from file: file:///home/ensab/rrlOwncloud/RepRapLtd/Engineering/Software/Eclipse/workspace/polyhedra/STL2CSG-test-objects-woo-1.stl
element vertex 68
property float x
property float y
property float z
element face 136
property list uchar int vertex_index
end_header
0.0 0.0 0.0 
0.0 0.0 10.0 
0.0 10.0 0.0 
0.0 10.0 10.0 
2.0 0.0 5.0 
2.0 0.0 10.0 
10.0 0.0 0.0 
8.0 0.0 5.0 
10.0 0.0 10.0 
8.0 0.0 10.0 
2.0 10.0 10.0 
2.0 10.0 5.0 
8.0 10.0 5.0 
10.0 10.0 0.0 
10.0 10.0 10.0 
8.0 10.0 10.0 
3.502978563308716 3.6737546920776367 0.0 
3.863870620727539 3.354032278060913 0.0 
3.2290878295898438 4.070553779602051 0.0 
4.29079008102417 3.129967451095581 0.0 
3.0581164360046387 4.521368503570557 0.0 
4.758926868438721 3.0145821571350098 0.0 
3.0 5.0 0.0 
5.241073131561279 3.0145821571350098 0.0 
3.2290878295898438 5.929446220397949 0.0 
3.502978563308716 6.326245307922363 0.0 
3.0581164360046387 5.478631496429443 0.0 
5.70920991897583 3.129967451095581 0.0 
6.136129379272461 3.354032278060913 0.0 
6.497021675109863 3.6737546920776367 0.0 
3.863870620727539 6.645967960357666 0.0 
6.770912170410156 4.070553779602051 0.0 
4.29079008102417 6.87003231048584 0.0 
6.941883563995361 4.521368503570557 0.0 
4.758926868438721 6.98541784286499 0.0 
7.0 5.0 0.0 
6.941883563995361 5.478631496429443 0.0 
6.770912170410156 5.929446220397949 0.0 
6.497021675109863 6.326245307922363 0.0 
6.136129379272461 6.645967960357666 0.0 
5.70920991897583 6.87003231048584 0.0 
5.241073131561279 6.98541784286499 0.0 
3.863870620727539 3.354032278060913 5.0 
3.502978563308716 3.6737546920776367 5.0 
3.2290878295898438 4.070553779602051 5.0 
4.29079008102417 3.129967451095581 5.0 
3.0581164360046387 4.521368503570557 5.0 
4.758926868438721 3.0145821571350098 5.0 
3.0 5.0 5.0 
5.241073131561279 3.0145821571350098 5.0 
5.70920991897583 3.129967451095581 5.0 
6.136129379272461 3.354032278060913 5.0 
6.497021675109863 3.6737546920776367 5.0 
6.770912170410156 4.070553779602051 5.0 
6.941883563995361 4.521368503570557 5.0 
7.0 5.0 5.0 
4.29079008102417 6.87003231048584 5.0 
4.758926868438721 6.98541784286499 5.0 
3.863870620727539 6.645967960357666 5.0 
3.502978563308716 6.326245307922363 5.0 
3.2290878295898438 5.929446220397949 5.0 
3.0581164360046387 5.478631496429443 5.0 
5.241073131561279 6.98541784286499 5.0 
6.941883563995361 5.478631496429443 5.0 
6.770912170410156 5.929446220397949 5.0 
6.497021675109863 6.326245307922363 5.0 
6.136129379272461 6.645967960357666 5.0 
5.70920991897583 6.87003231048584 5.0 
3 0 1 2
3 2 1 3
3 3 1 5
3 4 5 1
3 4 1 0
3 0 7 4
3 49 4 7
3 50 49 7
3 51 50 7
3 52 51 7
3 53 52 7
3 54 53 7
3 55 54 7
3 7 12 55
3 12 63 55
3 55 63 35
3 35 63 36
3 63 64 36
3 36 64 37
3 64 65 37
3 37 65 38
3 65 66 38
3 38 66 39
3 66 67 39
3 39 67 40
3 67 62 40
3 40 62 41
3 62 57 41
3 41 57 34
3 34 57 32
3 57 56 32
3 56 58 32
3 32 58 30
3 58 59 30
3 30 59 25
3 25 59 24
3 59 60 24
3 60 61 24
3 24 61 26
3 61 48 26
3 26 48 22
3 48 46 22
3 22 46 20
3 46 44 20
3 20 44 18
3 44 43 18
3 18 43 16
3 43 42 16
3 16 42 17
3 42 45 17
3 17 45 19
3 45 47 19
3 19 47 21
3 47 49 21
3 21 49 23
3 23 49 27
3 49 50 27
3 50 51 27
3 27 51 28
3 51 52 28
3 28 52 29
3 52 53 29
3 29 53 31
3 31 53 33
3 53 54 33
3 54 55 33
3 33 55 35
3 33 35 6
3 35 13 6
3 8 6 13
3 8 13 14
3 14 13 12
3 12 13 2
3 2 13 34
3 34 13 41
3 41 13 40
3 40 13 39
3 39 13 38
3 38 13 37
3 37 13 36
3 36 13 35
3 2 34 32
3 2 32 30
3 2 30 25
3 24 2 25
3 26 2 24
3 22 2 26
3 0 2 22
3 0 22 20
3 0 20 18
3 0 18 16
3 16 17 0
3 17 19 0
3 19 21 0
3 21 23 0
3 23 6 0
3 6 7 0
3 6 8 7
3 7 8 9
3 14 9 8
3 14 15 9
3 12 9 15
3 14 12 15
3 7 9 12
3 27 6 23
3 28 6 27
3 28 29 6
3 29 31 6
3 31 33 6
3 12 2 11
3 3 11 2
3 10 11 3
3 10 3 5
3 5 11 10
3 5 4 11
3 11 4 48
3 48 4 46
3 46 4 44
3 44 4 43
3 42 43 4
3 45 42 4
3 47 45 4
3 49 47 4
3 11 48 61
3 11 61 60
3 11 60 59
3 11 59 58
3 11 58 56
3 11 56 57
3 62 11 57
3 12 11 62
3 12 62 67
3 12 67 66
3 12 66 65
3 12 65 64
3 12 64 63
