ply
format ascii 1.0
comment Created by the Java program Triangulation on 2019-01-02
comment by RepRap Ltd. https://reprapltd.com
comment Software licence: GPL
comment Derived from file: file:///home/ensab/Desktop/rrlOwncloud/RepRapLtd/Engineering/Software/Eclipse/workspace/polyhedra/hole-enclosed-in-cylinder.stl
element vertex 160
property float x
property float y
property float z
element face 312
property list uchar int vertex_index
end_header
49.80434036254883 4.419005393981934 37.0 
50.0 -1.2246467572939613E-14 37.0 
50.0 -1.2246467572939613E-14 -3.0 
49.80434036254883 4.419005393981934 -3.0 
49.218894958496094 8.803425788879395 37.0 
49.218894958496094 8.803425788879395 -3.0 
48.24824523925781 13.118947982788086 37.0 
48.24824523925781 13.118947982788086 -3.0 
46.899986267089844 17.331796646118164 37.0 
46.899986267089844 17.331796646118164 -3.0 
45.18467330932617 21.408998489379883 37.0 
45.18467330932617 21.408998489379883 -3.0 
43.11573028564453 25.318647384643555 37.0 
43.11573028564453 25.318647384643555 -3.0 
40.70934295654297 29.03014373779297 37.0 
40.70934295654297 29.03014373779297 -3.0 
37.98435592651367 32.51443862915039 37.0 
37.98435592651367 32.51443862915039 -3.0 
34.96208572387695 35.744266510009766 37.0 
34.96208572387695 35.744266510009766 -3.0 
31.66619110107422 38.6943473815918 37.0 
31.66619110107422 38.6943473815918 -3.0 
28.122465133666992 41.341590881347656 37.0 
28.122465133666992 41.341590881347656 -3.0 
24.358642578125 43.665279388427734 37.0 
24.358642578125 43.665279388427734 -3.0 
20.4041805267334 45.6472282409668 37.0 
20.4041805267334 45.6472282409668 -3.0 
16.290029525756836 47.27192687988281 37.0 
16.290029525756836 47.27192687988281 -3.0 
12.048384666442871 48.52665710449219 37.0 
12.048384666442871 48.52665710449219 -3.0 
7.712446689605713 49.4015998840332 37.0 
7.712446689605713 49.4015998840332 -3.0 
3.316147804260254 49.88991165161133 37.0 
3.316147804260254 49.88991165161133 -3.0 
-1.1061043739318848 49.987762451171875 37.0 
-1.1061043739318848 49.987762451171875 -3.0 
-5.519699573516846 49.69439697265625 37.0 
-5.519699573516846 49.69439697265625 -3.0 
-9.890095710754395 49.01210021972656 37.0 
-9.890095710754395 49.01210021972656 -3.0 
-14.183089256286621 47.94622039794922 37.0 
-14.183089256286621 47.94622039794922 -3.0 
-18.365079879760742 46.505096435546875 37.0 
-18.365079879760742 46.505096435546875 -3.0 
-22.403339385986328 44.70000457763672 37.0 
-22.403339385986328 44.70000457763672 -3.0 
-26.26626205444336 42.545074462890625 37.0 
-26.26626205444336 42.545074462890625 -3.0 
-29.923616409301758 40.05717468261719 37.0 
-29.923616409301758 40.05717468261719 -3.0 
-33.34677505493164 37.25577163696289 37.0 
-33.34677505493164 37.25577163696289 -3.0 
-36.50895309448242 34.16279220581055 37.0 
-36.50895309448242 34.16279220581055 -3.0 
-39.385398864746094 30.802440643310547 37.0 
-39.385398864746094 30.802440643310547 -3.0 
-41.95359802246094 27.201019287109375 37.0 
-41.95359802246094 27.201019287109375 -3.0 
-44.19345474243164 23.3867130279541 37.0 
-44.19345474243164 23.3867130279541 -3.0 
-46.087440490722656 19.389375686645508 37.0 
-46.087440490722656 19.389375686645508 -3.0 
-47.6207275390625 15.240288734436035 37.0 
-47.6207275390625 15.240288734436035 -3.0 
-48.781314849853516 10.971925735473633 37.0 
-48.781314849853516 10.971925735473633 -3.0 
-49.56012725830078 6.617692947387695 37.0 
-49.56012725830078 6.617692947387695 -3.0 
-49.9510612487793 2.21166729927063 37.0 
-49.9510612487793 2.21166729927063 -3.0 
-49.9510612487793 -2.21166729927063 37.0 
-49.9510612487793 -2.21166729927063 -3.0 
-49.56012725830078 -6.617692947387695 37.0 
-49.56012725830078 -6.617692947387695 -3.0 
-48.781314849853516 -10.971925735473633 -3.0 
-48.781314849853516 -10.971925735473633 37.0 
-47.6207275390625 -15.240288734436035 37.0 
-47.6207275390625 -15.240288734436035 -3.0 
-46.087440490722656 -19.389375686645508 37.0 
-46.087440490722656 -19.389375686645508 -3.0 
-44.19345474243164 -23.3867130279541 -3.0 
-44.19345474243164 -23.3867130279541 37.0 
-41.95359802246094 -27.201019287109375 37.0 
-41.95359802246094 -27.201019287109375 -3.0 
-39.385398864746094 -30.802440643310547 37.0 
-39.385398864746094 -30.802440643310547 -3.0 
-36.50895309448242 -34.16279220581055 37.0 
-36.50895309448242 -34.16279220581055 -3.0 
-33.34677505493164 -37.25577163696289 -3.0 
-33.34677505493164 -37.25577163696289 37.0 
-29.923616409301758 -40.05717468261719 37.0 
-29.923616409301758 -40.05717468261719 -3.0 
-26.26626205444336 -42.545074462890625 37.0 
-26.26626205444336 -42.545074462890625 -3.0 
-22.403339385986328 -44.70000457763672 37.0 
-22.403339385986328 -44.70000457763672 -3.0 
-18.365079879760742 -46.505096435546875 37.0 
-18.365079879760742 -46.505096435546875 -3.0 
-14.183089256286621 -47.94622039794922 37.0 
-14.183089256286621 -47.94622039794922 -3.0 
-9.890095710754395 -49.01210021972656 37.0 
-9.890095710754395 -49.01210021972656 -3.0 
-5.519699573516846 -49.69439697265625 37.0 
-5.519699573516846 -49.69439697265625 -3.0 
-1.1061043739318848 -49.987762451171875 37.0 
-1.1061043739318848 -49.987762451171875 -3.0 
3.316147804260254 -49.88991165161133 37.0 
3.316147804260254 -49.88991165161133 -3.0 
7.712446689605713 -49.4015998840332 37.0 
7.712446689605713 -49.4015998840332 -3.0 
12.048384666442871 -48.52665710449219 37.0 
12.048384666442871 -48.52665710449219 -3.0 
16.290029525756836 -47.27192687988281 37.0 
16.290029525756836 -47.27192687988281 -3.0 
20.4041805267334 -45.6472282409668 37.0 
20.4041805267334 -45.6472282409668 -3.0 
24.358642578125 -43.665279388427734 37.0 
24.358642578125 -43.665279388427734 -3.0 
28.122465133666992 -41.341590881347656 37.0 
28.122465133666992 -41.341590881347656 -3.0 
31.66619110107422 -38.6943473815918 37.0 
31.66619110107422 -38.6943473815918 -3.0 
34.96208572387695 -35.744266510009766 37.0 
34.96208572387695 -35.744266510009766 -3.0 
37.98435592651367 -32.51443862915039 37.0 
37.98435592651367 -32.51443862915039 -3.0 
40.70934295654297 -29.03014373779297 37.0 
40.70934295654297 -29.03014373779297 -3.0 
43.11573028564453 -25.318647384643555 37.0 
43.11573028564453 -25.318647384643555 -3.0 
45.18467330932617 -21.408998489379883 37.0 
45.18467330932617 -21.408998489379883 -3.0 
46.899986267089844 -17.331796646118164 37.0 
46.899986267089844 -17.331796646118164 -3.0 
48.24824523925781 -13.118947982788086 37.0 
48.24824523925781 -13.118947982788086 -3.0 
49.218894958496094 -8.803425788879395 37.0 
49.218894958496094 -8.803425788879395 -3.0 
49.80434036254883 -4.419005393981934 37.0 
49.80434036254883 -4.419005393981934 -3.0 
0.0 0.0 10.0 
0.0 10.0 0.0 
0.0 10.0 10.0 
0.0 0.0 0.0 
5.0 0.0 10.0 
5.0 0.0 0.0 
5.0 10.0 10.0 
5.0 10.0 0.0 
10.0 0.0 10.0 
10.0 0.0 0.0 
5.0 20.0 0.0 
5.0 20.0 25.0 
5.0 0.0 25.0 
10.0 10.0 0.0 
20.0 0.0 0.0 
20.0 0.0 25.0 
20.0 20.0 25.0 
20.0 20.0 0.0 
3 0 1 2
3 1 141 2
3 141 3 2
3 0 2 3
3 4 0 3
3 4 3 5
3 3 7 5
3 6 5 7
3 8 6 7
3 8 7 9
3 7 11 9
3 10 9 11
3 12 10 11
3 12 11 13
3 11 17 13
3 13 17 15
3 16 15 17
3 18 16 17
3 18 17 19
3 23 19 17
3 23 17 7
3 7 17 11
3 27 23 7
3 141 27 7
3 141 7 3
3 37 27 141
3 139 37 141
3 140 139 141
3 1 140 141
3 0 140 1
3 6 140 0
3 6 0 4
3 6 4 5
3 26 140 6
3 22 26 6
3 16 22 6
3 16 6 10
3 10 6 8
3 10 8 9
3 16 10 12
3 16 12 14
3 14 12 13
3 14 13 15
3 16 14 15
3 18 22 16
3 18 20 22
3 22 20 21
3 20 19 21
3 21 19 23
3 22 21 23
3 24 22 23
3 24 23 25
3 25 23 27
3 26 25 27
3 28 26 27
3 28 27 29
3 29 27 33
3 33 27 37
3 35 33 37
3 36 35 37
3 38 36 37
3 38 37 39
3 39 37 41
3 41 37 45
3 45 37 87
3 87 37 107
3 107 37 139
3 107 139 113
3 113 139 121
3 121 139 127
3 127 139 137
3 138 137 139
3 140 138 139
3 36 138 140
3 26 36 140
3 26 32 36
3 32 34 36
3 36 34 35
3 34 33 35
3 34 32 33
3 32 31 33
3 31 29 33
3 30 29 31
3 32 30 31
3 28 30 32
3 26 28 32
3 30 28 29
3 36 106 138
3 138 106 112
3 112 106 108
3 108 106 107
3 106 105 107
3 99 107 105
3 99 105 103
3 104 103 105
3 106 104 105
3 106 98 104
3 104 98 102
3 102 98 100
3 100 98 99
3 98 97 99
3 95 99 97
3 96 95 97
3 98 96 97
3 98 94 96
3 96 94 95
3 94 93 95
3 93 99 95
3 89 99 93
3 89 93 90
3 92 90 93
3 94 92 93
3 98 92 94
3 98 88 92
3 92 88 91
3 91 88 90
3 88 89 90
3 88 87 89
3 87 99 89
3 87 107 99
3 88 86 87
3 86 85 87
3 85 79 87
3 79 45 87
3 47 45 79
3 55 47 79
3 73 55 79
3 75 73 79
3 76 75 79
3 78 76 79
3 80 78 79
3 80 79 81
3 81 79 85
3 82 81 85
3 84 82 85
3 86 84 85
3 78 84 86
3 44 78 86
3 36 44 86
3 36 86 106
3 106 86 98
3 98 86 88
3 36 40 44
3 40 42 44
3 44 42 43
3 42 41 43
3 43 41 45
3 44 43 45
3 46 44 45
3 46 45 47
3 48 46 47
3 48 47 49
3 49 47 55
3 51 49 55
3 53 51 55
3 54 53 55
3 56 54 55
3 56 55 57
3 57 55 59
3 59 55 67
3 67 55 73
3 69 67 73
3 71 69 73
3 72 71 73
3 74 72 73
3 74 73 75
3 74 75 76
3 77 74 76
3 78 77 76
3 74 77 78
3 72 74 78
3 54 72 78
3 46 54 78
3 44 46 78
3 46 48 54
3 48 50 54
3 50 52 54
3 54 52 53
3 52 51 53
3 52 50 51
3 50 49 51
3 50 48 49
3 54 66 72
3 66 68 72
3 68 70 72
3 72 70 71
3 70 69 71
3 70 68 69
3 68 67 69
3 68 66 67
3 66 65 67
3 65 61 67
3 61 59 67
3 60 59 61
3 62 60 61
3 62 61 63
3 63 61 65
3 64 63 65
3 66 64 65
3 60 64 66
3 58 60 66
3 54 58 66
3 54 56 58
3 58 56 57
3 58 57 59
3 60 58 59
3 60 62 64
3 64 62 63
3 42 40 41
3 40 39 41
3 40 38 39
3 36 38 40
3 78 80 84
3 80 83 84
3 84 83 82
3 83 80 82
3 80 81 82
3 92 91 90
3 100 99 101
3 99 103 101
3 102 101 103
3 104 102 103
3 102 100 101
3 108 107 109
3 107 113 109
3 109 113 111
3 112 111 113
3 114 112 113
3 114 113 115
3 113 121 115
3 115 121 119
3 120 119 121
3 122 120 121
3 122 121 123
3 121 127 123
3 123 127 125
3 126 125 127
3 128 126 127
3 128 127 129
3 127 137 129
3 129 137 131
3 131 137 135
3 136 135 137
3 138 136 137
3 138 126 136
3 136 126 128
3 136 128 130
3 130 128 129
3 130 129 131
3 132 130 131
3 132 131 133
3 131 135 133
3 134 133 135
3 136 134 135
3 136 130 134
3 134 130 132
3 134 132 133
3 138 120 126
3 126 120 122
3 126 122 124
3 124 122 123
3 124 123 125
3 126 124 125
3 138 112 120
3 120 112 114
3 120 114 118
3 118 114 116
3 116 114 115
3 116 115 117
3 115 119 117
3 118 117 119
3 120 118 119
3 118 116 117
3 112 110 111
3 110 109 111
3 110 108 109
3 112 108 110
3 26 24 25
3 22 24 26
3 20 18 19
3 142 143 144
3 143 148 144
3 144 148 142
3 142 148 146
3 154 146 148
3 154 148 153
3 153 148 152
3 148 149 152
3 152 149 155
3 155 149 147
3 149 145 147
3 146 147 145
3 146 145 142
3 142 145 143
3 149 143 145
3 149 148 143
3 150 147 146
3 154 150 146
3 157 150 154
3 154 158 157
3 159 157 158
3 159 158 152
3 152 158 153
3 153 158 154
3 159 152 155
3 159 155 156
3 155 151 156
3 150 156 151
3 150 151 147
3 155 147 151
3 157 156 150
3 156 157 159
