ply
format ascii 1.0
comment Created by the Java program Triangulation on 2021-09-01
comment by RepRap Ltd. https://reprapltd.com
comment Software licence: GPL
comment Derived from file: file:///home/ensab/Desktop/rrlOwncloud/RepRapLtd/Engineering/Software/Eclipse/workspace/polyhedra/two-overlapping-cubes.stl
element vertex 18
property float x
property float y
property float z
element face 32
property list uchar int vertex_index
end_header
0.0 10.0 0.0 
0.0 0.0 10.0 
0.0 10.0 10.0 
0.0 0.0 0.0 
5.0 0.0 0.0 
5.0 0.0 10.0 
5.0 10.0 10.0 
5.0 10.0 0.0 
10.0 0.0 0.0 
10.0 0.0 10.0 
5.0 20.0 0.0 
5.0 20.0 25.0 
5.0 0.0 25.0 
10.0 10.0 0.0 
20.0 0.0 0.0 
20.0 0.0 25.0 
20.0 20.0 25.0 
20.0 20.0 0.0 
3 0 1 2
3 6 2 1
3 6 1 5
3 3 5 1
3 3 1 0
3 0 7 3
3 3 7 4
3 7 13 4
3 4 13 8
3 8 13 14
3 13 17 14
3 15 14 17
3 15 17 16
3 16 17 10
3 10 17 13
3 7 10 13
3 7 6 10
3 6 11 10
3 16 10 11
3 16 11 12
3 6 12 11
3 5 12 6
3 9 12 5
3 4 9 5
3 4 5 3
3 8 9 4
3 14 9 8
3 14 15 9
3 9 15 12
3 16 12 15
3 6 7 0
3 6 0 2
