ply
format ascii 1.0
comment Created by the Java program Triangulation on 2018-10-29
comment by RepRap Ltd. https://reprapltd.com
comment Software licence: GPL
comment Derived from file: file:///home/ensab/Desktop/rrlOwncloud/RepRapLtd/Engineering/Software/Eclipse/workspace/triangulation/test-cube.stl
element vertex 8
property float x
property float y
property float z
element face 12
property list uchar int vertex_index
end_header
0.0 10.0 0.0 
0.0 0.0 10.0 
0.0 10.0 10.0 
0.0 0.0 0.0 
10.0 0.0 10.0 
10.0 10.0 0.0 
10.0 10.0 10.0 
10.0 0.0 0.0 
3 0 1 2
3 6 2 1
3 6 1 4
3 3 4 1
3 3 1 0
3 0 5 3
3 3 5 7
3 4 7 5
3 4 5 6
3 6 5 0
3 6 0 2
3 7 4 3
